<svg width="140" height="35" viewBox="0 0 140 35" fill="none" xmlns="http://www.w3.org/2000/svg">
<path d="M10.9375 7.94769C12.323 7.94769 13.5626 8.23936 14.6563 8.74978C15.823 9.2602 16.7709 9.98937 17.6459 10.8644C18.448 11.7394 19.1042 12.8331 19.6147 14.0727C20.0522 15.3123 20.3438 16.5519 20.3438 17.9373C20.3438 19.3227 20.1251 20.6352 19.6147 21.8019C19.1772 23.0415 18.5209 24.0623 17.6459 25.0103C16.8438 25.8853 15.823 26.6144 14.6563 27.1249C13.4896 27.6353 12.2501 27.9269 10.9375 27.9269C9.84379 27.9269 8.75004 27.7082 7.7292 27.3436C6.70836 26.979 5.83336 26.4686 5.25002 25.8123V34.9999H0V8.53103H4.52085L5.25002 9.84353C5.97919 9.18728 6.78128 8.67686 7.7292 8.45811C8.67712 8.09353 9.77087 7.94769 10.9375 7.94769ZM10.2813 23.2603C10.9375 23.2603 11.5938 23.1144 12.1771 22.8228C12.7605 22.5311 13.2709 22.1665 13.7813 21.729C14.2188 21.2915 14.5834 20.7082 14.8751 20.0519C15.1667 19.3957 15.3126 18.7394 15.3126 18.0102C15.3126 17.2811 15.1667 16.6248 14.8751 15.9686C14.5834 15.3123 14.2188 14.729 13.7813 14.2915C13.3438 13.854 12.8334 13.4165 12.1771 13.1977C11.5938 12.906 10.9375 12.7602 10.2813 12.7602C9.62504 12.7602 8.96879 12.8331 8.38545 13.0519C7.80212 13.2706 7.2917 13.5623 6.85419 13.9998C6.41669 14.4373 6.05211 14.9477 5.83336 15.6769C5.61461 16.3331 5.46877 17.1352 5.46877 18.0832C5.46877 18.9582 5.61461 19.7602 5.83336 20.4165C6.05211 21.0727 6.41669 21.5832 6.85419 22.0936C7.2917 22.5311 7.80212 22.8957 8.38545 23.1144C8.89587 23.1144 9.55212 23.2603 10.2813 23.2603Z" fill="white"/>
<path d="M27.7812 11.1559C28 10.7184 28.3645 10.3538 28.6562 9.98925C29.0208 9.62466 29.3854 9.26008 29.8229 8.96841C30.2604 8.67674 30.7708 8.45799 31.4271 8.23924C32.0104 8.09341 32.6666 7.94757 33.3958 7.94757C34.2708 7.94757 35.2917 8.0934 36.3854 8.38507L35.875 13.0518C35.5833 12.9788 35.2917 12.9059 35 12.833C34.7812 12.7601 34.4896 12.7601 34.2708 12.6872C33.9792 12.6143 33.7604 12.6143 33.5416 12.6143C32.7396 12.6143 31.9375 12.7601 31.2812 12.9788C30.5521 13.1976 29.9687 13.5622 29.4583 13.9268C28.9479 14.3643 28.5104 14.8018 28.2187 15.3851C27.927 15.9684 27.7812 16.5518 27.7812 17.208V27.4893H22.5312V8.53091H27.3437L27.7812 11.1559Z" fill="white"/>
<path d="M44.0418 27.4904H38.7918V8.53198H44.0418V27.4904Z" fill="white"/>
<path d="M54.8334 22.7508H63.5834V27.4904H47.9062V23.0425L55.7084 13.1987H48.6354V8.53198H63.3646V12.032L54.8334 22.7508Z" fill="white"/>
<path d="M76.4168 7.94757C77.8752 7.94757 79.1148 8.23924 80.2814 8.82257C81.4481 9.40591 82.4689 10.1351 83.271 11.083C84.146 12.0309 84.7294 13.0518 85.2398 14.2913C85.6773 15.5309 85.896 16.7705 85.896 18.0101C85.896 18.7393 85.8231 19.6143 85.6044 20.4893H72.1147C72.6252 21.3643 73.3543 22.0935 74.3022 22.6768C75.2502 23.2601 76.271 23.5518 77.3648 23.5518C78.4585 23.5518 79.4064 23.4789 80.2814 23.2601C81.0835 23.1143 81.8856 22.8226 82.6148 22.6039L84.3648 25.8851C83.4169 26.5414 82.3231 27.0518 81.1564 27.4164C79.9898 27.781 78.6773 27.9268 77.2918 27.9268C75.7606 27.9268 74.3752 27.6351 73.0626 27.1247C71.7501 26.6143 70.6564 25.8851 69.6356 25.0101C68.6876 24.1351 67.8855 23.0414 67.3751 21.8018C66.7918 20.5622 66.5001 19.2497 66.5001 17.9372C66.5001 16.5518 66.7189 15.3122 67.2293 14.0726C67.7397 12.833 68.4689 11.8122 69.3439 10.8642C70.2189 9.98925 71.3126 9.26008 72.4793 8.67674C73.7189 8.23924 75.0314 7.94757 76.4168 7.94757ZM80.7189 16.4059C80.4273 15.3122 79.8439 14.4372 79.0418 13.708C78.2398 12.9788 77.3647 12.6872 76.3439 12.6872C75.3231 12.6872 74.3752 13.0518 73.5731 13.708C72.771 14.3643 72.1876 15.3122 71.896 16.4059H80.7189Z" fill="white"/>
<path d="M110.907 8.53198C111.563 8.53198 112.365 8.67782 113.094 8.89657C113.896 9.11532 114.625 9.55282 115.282 10.1362C115.938 10.7195 116.521 11.5216 116.959 12.5424C117.396 13.5633 117.615 14.8758 117.615 16.407V27.4904H112.365V17.3549C112.365 16.6258 112.292 15.9695 112.146 15.3862C112 14.8758 111.782 14.4383 111.49 14.0737C111.198 13.7091 110.907 13.4903 110.542 13.3445C110.177 13.1987 109.813 13.1258 109.448 13.1258C109.084 13.1258 108.719 13.1987 108.355 13.3445C107.99 13.4903 107.698 13.7091 107.407 14.0008C107.115 14.2924 106.896 14.7299 106.75 15.2403C106.605 15.7508 106.532 16.4799 106.532 17.282V27.4904H101.282V17.3549C101.282 15.8237 100.99 14.7299 100.479 14.1466C99.9691 13.5633 99.167 13.1987 98.1462 13.1987C97.417 13.1987 96.7607 13.5633 96.1774 14.2195C95.5941 14.8758 95.3024 15.9695 95.3024 17.4279V27.4904H90.0524V8.53198H94.5732L95.3024 10.282C95.8857 9.69865 96.542 9.26115 97.3441 8.96948C98.1462 8.67782 98.9482 8.53198 99.8232 8.53198C100.261 8.53198 100.771 8.6049 101.282 8.67782C101.792 8.75073 102.302 8.89657 102.74 9.18823C103.25 9.40699 103.688 9.69865 104.125 10.0632C104.563 10.4278 105 10.9382 105.365 11.4487C105.657 10.9382 106.021 10.5007 106.459 10.1362C106.896 9.77157 107.334 9.4799 107.844 9.18823C108.355 8.96948 108.865 8.75073 109.448 8.67782C109.813 8.53198 110.396 8.53198 110.907 8.53198Z" fill="#EDDA2E"/>
<path d="M130.376 7.94757C131.834 7.94757 133.073 8.23924 134.24 8.82257C135.407 9.40591 136.428 10.1351 137.23 11.083C138.105 12.0309 138.688 13.0518 139.198 14.2913C139.636 15.5309 139.855 16.7705 139.855 18.0101C139.855 18.7393 139.782 19.6143 139.563 20.4893H126.001C126.511 21.3643 127.24 22.0935 128.188 22.6768C129.136 23.2601 130.157 23.5518 131.251 23.5518C132.344 23.5518 133.292 23.4789 134.167 23.2601C134.969 23.1143 135.771 22.8226 136.501 22.6039L138.251 25.8851C137.303 26.5414 136.209 27.0518 135.042 27.4164C133.876 27.781 132.563 27.9268 131.178 27.9268C129.646 27.9268 128.261 27.6351 126.948 27.1247C125.636 26.6143 124.542 25.8851 123.521 25.0101C122.573 24.1351 121.771 23.0414 121.261 21.8018C120.678 20.5622 120.386 19.2497 120.386 17.9372C120.386 16.5518 120.605 15.3122 121.115 14.0726C121.626 12.833 122.355 11.8122 123.23 10.8642C124.105 9.98925 125.198 9.26008 126.365 8.67674C127.678 8.23924 128.99 7.94757 130.376 7.94757ZM134.678 16.4059C134.386 15.3122 133.803 14.4372 133.001 13.708C132.198 12.9788 131.323 12.6872 130.303 12.6872C129.282 12.6872 128.334 13.0518 127.532 13.708C126.73 14.3643 126.146 15.3122 125.855 16.4059H134.678Z" fill="#EDDA2E"/>
<path d="M41.4169 5.90627C40.6148 5.90627 39.8857 5.6146 39.3752 5.03127C38.7919 4.44793 38.5002 3.79168 38.5002 2.98959C38.5002 2.18751 38.7919 1.45834 39.3752 0.875003C39.9586 0.291668 40.6148 0 41.4169 0C42.219 0 42.9482 0.291668 43.4586 0.875003C43.969 1.45834 44.3336 2.11459 44.3336 2.98959C44.3336 3.79168 44.0419 4.52085 43.4586 5.03127C42.9482 5.6146 42.219 5.90627 41.4169 5.90627Z" fill="#EDDA2E"/>
</svg>
